<?xml version="1.0" encoding="utf-8"?>
<!-- Generator: Adobe Illustrator 22.0.1, SVG Export Plug-In . SVG Version: 6.00 Build 0)  -->
<svg version="1.1" id="Layer_1" xmlns="http://www.w3.org/2000/svg" xmlns:xlink="http://www.w3.org/1999/xlink" x="0px" y="0px"
	 viewBox="0 0 900.7 1000" style="enable-background:new 0 0 900.7 1000;" xml:space="preserve">
<style type="text/css">
	.st0{opacity:5.000000e-02;enable-background:new    ;}
	.st1{opacity:0.2;fill:none;stroke:#FFFFFF;stroke-miterlimit:10;enable-background:new    ;}
	.st2{opacity:0.2;fill:none;stroke:#FFFFFF;stroke-miterlimit:10;}
</style>
<g>
	<g>
		<g>
			<g>
				<polygon class="st0" points="-2063,0 -1162.6,1000 1502,1000 602,0 				"/>
			</g>
		</g>
	</g>
	<g>
		<g>
			<g>
				<polygon class="st0" points="-2363,0 -1462.6,1000 1202,1000 302,0 				"/>
			</g>
		</g>
	</g>
	<g>
		<g>
			<g>
				<polygon class="st0" points="-2663,0 -1762.6,1000 902,1000 2,0 				"/>
			</g>
		</g>
	</g>
	<g>
		<g>
			<g>
				<polygon class="st0" points="-2963,0 -2062.6,1000 602,1000 -298,0 				"/>
			</g>
		</g>
	</g>
	<g>
		<g>
			<g>
				<polygon class="st0" points="-3199,1 -2596.6,1001 2,1000 -898,0 				"/>
			</g>
		</g>
	</g>
	<g>
		<g>
			<g>
				<polygon class="st0" points="-3197,1 -2296.6,1001 302,1000 -598,0 				"/>
			</g>
		</g>
	</g>
</g>
<path class="st1" d="M592.7,1001"/>
<path class="st1" d="M-297.3,0"/>
<path class="st1" d="M304.9,1000.8"/>
<path class="st1" d="M-595.1,0.8"/>
<line class="st2" x1="602" y1="0" x2="1502" y2="1000"/>
<line class="st2" x1="302" y1="0" x2="1202" y2="1000"/>
<line class="st2" x1="2.4" y1="0" x2="902.4" y2="1000"/>
<line class="st2" x1="-297.3" y1="0" x2="602.7" y2="1000"/>
<line class="st2" x1="-598.3" y1="0" x2="301.7" y2="1000"/>
<line class="st2" x1="-898" y1="0" x2="2" y2="1000"/>
<line class="st2" x1="-1197" y1="0" x2="-297" y2="1000"/>
<line class="st2" x1="-1499.3" y1="0" x2="-599.3" y2="1000"/>
<line class="st2" x1="900.4" y1="0" x2="1800.4" y2="1000"/>
</svg>
